<svg width="75" height="351" viewBox="0 0 75 351" fill="none" xmlns="http://www.w3.org/2000/svg">
<path d="M104.682 279.961C43.1383 225.321 10.622 169.798 61.4313 95.3065C88.8787 55.0673 150.289 41.3384 210.697 61.694C217.77 64.0762 225.069 65.79 232.326 67.6272V0C202.678 5.44527 172.915 10.3648 143.453 16.6811C65.9863 33.2925 6.65064 90.178 0.43033 165.62C-4.68295 227.624 36.4898 267.86 85.7035 299.867C99.4288 308.793 119.266 317.764 111.127 339.504C108.586 346.293 103.898 349.552 98.344 350.86L140.414 350.86C147.447 318.778 125.633 298.562 104.685 279.961H104.682Z" fill="#7BB7C9"/>
</svg>
