<svg width="77" height="293" viewBox="0 0 77 293" fill="none" xmlns="http://www.w3.org/2000/svg">
<path d="M-21.9181 56.3966C33.8352 89.8734 67.1728 128.263 38.5559 193.515C23.0967 228.763 -22.5997 248.366 -72.4797 241.351C-78.3203 240.531 -84.2385 240.262 -90.1427 239.892L-80.2972 292.416C-58.0628 283.87 -35.6632 275.716 -13.7009 266.521C44.0465 242.342 81.8487 189.522 75.6966 130.024C70.641 81.1227 32.8058 55.8669 -10.0764 38.1735C-22.0359 33.2387 -38.7492 29.1594 -35.5926 11.0898C-34.6076 5.44764 -31.441 2.23352 -27.3177 0.408827L-59.9922 6.53363C-60.7833 32.4747 -40.898 45.0002 -21.9205 56.397L-21.9181 56.3966Z" fill="#7BB7C9"/>
</svg>
